<?xml version="1.0" standalone="no"?>
<!DOCTYPE svg PUBLIC "-//W3C//DTD SVG 20010904//EN"
 "http://www.w3.org/TR/2001/REC-SVG-20010904/DTD/svg10.dtd">
<svg version="1.0" xmlns="http://www.w3.org/2000/svg"
 width="512.000000pt" height="512.000000pt" viewBox="0 0 512.000000 512.000000"
 preserveAspectRatio="xMidYMid meet">
<metadata>
Created by potrace 1.11, written by Peter Selinger 2001-2013
</metadata>
<g transform="translate(0.000000,512.000000) scale(0.100000,-0.100000)"
fill="#000000" stroke="none">
<path d="M2320 5110 c-571 -55 -1116 -306 -1529 -705 -436 -422 -700 -959
-772 -1570 -27 -228 -10 -559 42 -805 221 -1063 1095 -1867 2189 -2012 123
-16 509 -16 625 0 459 65 873 233 1230 501 122 92 341 304 440 426 299 368
493 822 557 1305 16 123 16 509 0 625 -65 459 -233 873 -501 1230 -92 122
-304 341 -426 440 -365 297 -826 494 -1295 555 -115 15 -443 21 -560 10z
m1247 -726 c69 -51 91 -129 57 -197 -9 -18 -142 -242 -295 -499 -154 -257
-279 -469 -279 -472 0 -3 127 -6 283 -8 281 -3 282 -3 338 -29 79 -37 133 -90
171 -167 29 -59 33 -76 33 -152 0 -72 -4 -94 -28 -145 -52 -111 -123 -158
-206 -135 -99 26 -141 136 -86 225 29 48 30 62 8 87 -15 17 -41 18 -412 18
-392 0 -397 0 -441 23 -56 29 -83 75 -77 137 3 39 49 122 295 534 161 269 292
490 292 492 0 2 -226 4 -502 4 l-503 0 -343 -677 c-258 -509 -345 -689 -349
-724 -11 -90 55 -187 146 -218 23 -7 162 -11 435 -11 382 0 403 -1 434 -20 18
-11 41 -34 52 -52 44 -72 45 -67 -285 -745 -168 -344 -305 -630 -305 -635 0
-5 4 -8 9 -6 4 1 261 294 569 649 396 455 571 650 594 660 72 30 161 0 192
-65 20 -42 21 -102 2 -138 -13 -25 -1032 -1204 -1125 -1301 -59 -62 -112 -93
-181 -105 -213 -39 -409 162 -356 365 8 32 127 289 265 572 138 283 251 516
251 518 0 2 -118 3 -263 3 -145 0 -290 5 -323 11 -193 35 -354 190 -400 385
-20 87 -14 209 15 283 17 42 583 1164 728 1443 36 69 65 96 118 109 16 4 348
7 737 6 700 -2 707 -2 735 -23z"/>
</g>
</svg>
